<svg width="512" height="512" version="1.1" xmlns="http://www.w3.org/2000/svg" desc="Created with imagetracer.js version 1.2.6" ><path fill="rgb(24,183,205)" stroke="rgb(24,183,205)" stroke-width="1" opacity="1" d="M 280 70 L 295 70 L 295 78.5 L 296.5 79 Q 301.6 82.4 302.5 90 L 305 83.5 L 309.5 79 L 311 78.5 L 311 70 L 326 70 L 326 77.5 L 335 88.5 L 335 114 L 272 114 L 272 87.5 Q 273.8 80.3 280 77.5 L 280 70 Z " /><path fill="rgb(24,183,205)" stroke="rgb(24,183,205)" stroke-width="1" opacity="1" d="M 167.5 153 L 168 155 L 183 155 L 183 161.5 Q 186.8 163.8 187.5 169 Q 188.3 163.8 192 161.5 L 192 155 L 208 155 L 208 161.5 L 212.5 169 L 213 165.5 L 217 160.5 L 217 156.5 L 216.5 155 L 232 155 L 232 161.5 Q 235.8 163.8 236.5 169 Q 237.3 163.8 241 161.5 L 241 155 L 257 155.5 L 256 160.5 Q 260 162.8 260 168 Q 263 169.3 262 165.5 L 266 160.5 L 266 156.5 L 265.5 155 L 281 155 L 281 161.5 Q 284.8 163.8 285.5 169 Q 286.3 163.8 290 161.5 L 290 155 L 306 155.5 L 305 160.5 L 309 165.5 L 309 168 Q 312 169.3 311 165.5 Q 315.5 162.8 314 155 L 330 155 L 330 161.5 L 335 169.5 L 335 197 L 114.5 197 L 114 196.5 L 114 169.5 L 119 161.5 L 119 155.5 L 118.5 154 L 119.5 155 L 134 155 L 134 161.5 Q 138.1 163.9 138.5 170 L 143 161.5 L 143 155 L 159 155 L 159 161.5 L 163.5 169 L 164 165.5 L 168 160.5 L 168 155.5 L 167.5 153 Z " /><path fill="rgb(62,84,106)" stroke="rgb(62,84,106)" stroke-width="1" opacity="0.6705882352941176" d="M 423.5 2 L 424.5 4 L 423.5 2 Z " /><path fill="rgb(62,84,106)" stroke="rgb(62,84,106)" stroke-width="1" opacity="0.6705882352941176" d="M 87.5 3 L 85.5 6 L 87.5 3 Z " /><path fill="rgb(62,84,106)" stroke="rgb(62,84,106)" stroke-width="1" opacity="0.6705882352941176" d="M 429.5 13 L 430 477.5 L 429 477.5 L 429.5 13 Z " /><path fill="rgb(62,84,106)" stroke="rgb(62,84,106)" stroke-width="1" opacity="0.6705882352941176" d="M 400.5 490 L 401 504.5 L 400 504.5 L 400.5 490 Z " /><path fill="rgb(0,0,0)" stroke="rgb(0,0,0)" stroke-width="1" opacity="0" d="M 0 0 L 91 0.5 L 85 4.5 L 82 10.5 L 82 479.5 Q 83.3 485.3 87.5 488 L 90.5 490 L 98 491 L 98 507.5 L 102 511.5 L 0 512 L 0 0 Z " /><path fill="rgb(0,0,0)" stroke="rgb(0,0,0)" stroke-width="1" opacity="0" d="M 421.5 0 L 511.5 0 L 512 0.5 L 512 512 L 412 511.5 L 414 511 L 416 507.5 L 416 491 L 421.5 490 L 428 484.5 L 430 479.5 L 430 10.5 L 424.5 2 Q 420.7 1.7 421.5 0 Z " /><path fill="rgb(0,0,0)" stroke="rgb(0,0,0)" stroke-width="1" opacity="0" d="M 114 491 L 399.5 491 L 400 491.5 L 400 506.5 L 404 511.5 L 110.5 512 L 113 508.5 L 114 506.5 L 114 491 Z " /><path fill="rgb(68,93,116)" stroke="rgb(68,93,116)" stroke-width="1" opacity="0.3568627450980392" d="M 89.5 1 L 88.5 3 L 85.5 5 L 87.5 2 L 89.5 1 Z " /><path fill="rgb(68,93,116)" stroke="rgb(68,93,116)" stroke-width="1" opacity="0.3568627450980392" d="M 424.5 2 L 426.5 5 L 424.5 2 Z " /><path fill="rgb(68,93,116)" stroke="rgb(68,93,116)" stroke-width="1" opacity="0.3568627450980392" d="M 84.5 6 L 84 7.5 L 83.5 9 L 83 7.5 L 84.5 6 Z " /><path fill="rgb(68,93,116)" stroke="rgb(68,93,116)" stroke-width="1" opacity="0.3568627450980392" d="M 427.5 6 L 429 8.5 L 428 8.5 L 427.5 6 Z " /><path fill="rgb(68,93,116)" stroke="rgb(68,93,116)" stroke-width="1" opacity="0.3568627450980392" d="M 82.5 10 L 83 479.5 L 82 479.5 L 82.5 10 Z " /><path fill="rgb(68,93,116)" stroke="rgb(68,93,116)" stroke-width="1" opacity="0.3568627450980392" d="M 429.5 10 L 430 12.5 L 429 12.5 L 429.5 10 Z " /><path fill="rgb(68,93,116)" stroke="rgb(68,93,116)" stroke-width="1" opacity="0.3568627450980392" d="M 83.5 481 L 88 487.5 L 84 484.5 L 83.5 481 Z " /><path fill="rgb(68,93,116)" stroke="rgb(68,93,116)" stroke-width="1" opacity="0.3568627450980392" d="M 427.5 484 L 424.5 488 L 427.5 484 Z " /><path fill="rgb(68,93,116)" stroke="rgb(68,93,116)" stroke-width="1" opacity="0.3568627450980392" d="M 89.5 488 L 92 489.5 L 90.5 490 L 89.5 488 Z " /><path fill="rgb(68,93,116)" stroke="rgb(68,93,116)" stroke-width="1" opacity="0.3568627450980392" d="M 422.5 488 L 421.5 490 L 420 489.5 L 422.5 488 Z " /><path fill="rgb(68,93,116)" stroke="rgb(68,93,116)" stroke-width="1" opacity="0.3568627450980392" d="M 94.5 490 L 98 490.5 L 94.5 491 L 94.5 490 Z " /><path fill="rgb(68,93,116)" stroke="rgb(68,93,116)" stroke-width="1" opacity="0.3568627450980392" d="M 114.5 490 L 400 490.5 L 114.5 491 L 114.5 490 Z " /><path fill="rgb(68,93,116)" stroke="rgb(68,93,116)" stroke-width="1" opacity="0.3568627450980392" d="M 98.5 506 L 100 508.5 L 98 507.5 L 98.5 506 Z " /><path fill="rgb(68,93,116)" stroke="rgb(68,93,116)" stroke-width="1" opacity="0.3568627450980392" d="M 101.5 510 L 102.5 512 L 101.5 510 Z " /><path fill="rgb(68,93,116)" stroke="rgb(68,93,116)" stroke-width="1" opacity="0.3568627450980392" d="M 110.5 510 L 109.5 512 L 110.5 510 Z " /><path fill="rgb(68,93,116)" stroke="rgb(68,93,116)" stroke-width="1" opacity="0.3568627450980392" d="M 403.5 510 L 406 511.5 L 404.5 512 L 403.5 510 Z " /><path fill="rgb(69,93,117)" stroke="rgb(69,93,117)" stroke-width="1" opacity="1" d="M 94.5 0 L 370.5 0 Q 377 1.5 380 6.5 L 382 11.5 L 382 108 L 360.5 108 L 358 110.5 L 358 167.5 L 359.5 169 L 361.5 170 L 382 170 L 382 263.5 L 380.5 264 Q 374.5 265.5 376 274.5 L 378.5 278 L 383 279.5 L 382 280.5 L 382 294 L 365.5 294 L 360 297.5 L 359 305.5 L 363.5 310 L 382 310 L 382 479.5 L 375.5 488 L 371.5 490 L 93.5 490 L 86 485.5 L 83 479.5 L 83 10.5 Q 84.4 4.4 89.5 2 L 94.5 0 Z M 118 33 L 114 37 L 114 359 L 118 362 L 332 362 L 335 357 L 335 170 L 335 168 L 335 39 L 334 36 L 332 33 L 118 33 Z M 371 189 L 365 191 L 363 195 L 364 202 L 369 205 L 376 204 L 379 198 L 378 194 L 375 190 L 371 189 Z M 368 215 L 363 220 Q 362 229 368 230 L 376 229 L 379 224 L 377 218 Q 375 214 368 215 Z M 370 240 L 365 242 L 363 246 L 364 253 L 369 256 L 374 256 L 377 254 L 379 249 L 378 245 Q 376 240 370 240 Z M 117 403 L 114 407 L 114 448 L 118 451 L 161 451 L 163 450 L 164 448 L 164 406 L 162 403 L 117 403 Z M 203 403 L 200 404 L 199 407 L 199 448 L 203 451 L 246 451 L 248 450 L 250 445 L 250 409 L 249 406 L 247 403 L 203 403 Z M 288 403 L 284 408 L 284 446 L 285 449 L 288 451 L 332 451 L 335 447 L 335 408 L 334 406 L 332 403 L 288 403 Z " /><path fill="rgb(69,93,117)" stroke="rgb(69,93,117)" stroke-width="1" opacity="1" d="M 158.5 61 L 160 61.5 L 157.5 63 L 158.5 61 Z " /><path fill="rgb(69,93,117)" stroke="rgb(69,93,117)" stroke-width="1" opacity="1" d="M 289.5 61 L 292 62.5 L 290.5 62 L 289.5 61 Z " /><path fill="rgb(69,93,117)" stroke="rgb(69,93,117)" stroke-width="1" opacity="1" d="M 315.5 61 L 317 61.5 L 314.5 63 L 315.5 61 Z " /><path fill="rgb(69,93,117)" stroke="rgb(69,93,117)" stroke-width="1" opacity="1" d="M 125.5 62 L 124.5 64 L 125.5 62 Z " /><path fill="rgb(69,93,117)" stroke="rgb(69,93,117)" stroke-width="1" opacity="1" d="M 134.5 62 L 135.5 64 L 134.5 62 Z " /><path fill="rgb(69,93,117)" stroke="rgb(69,93,117)" stroke-width="1" opacity="1" d="M 188.5 62 L 186.5 65 L 188.5 62 Z " /><path fill="rgb(69,93,117)" stroke="rgb(69,93,117)" stroke-width="1" opacity="1" d="M 282.5 62 L 281.5 64 L 282.5 62 Z " /><path fill="rgb(69,93,117)" stroke="rgb(69,93,117)" stroke-width="1" opacity="1" d="M 323.5 62 L 324.5 64 L 323.5 62 Z " /><path fill="rgb(69,93,117)" stroke="rgb(69,93,117)" stroke-width="1" opacity="1" d="M 155.5 64 L 155 65.5 L 154.5 67 L 154 65.5 L 155.5 64 Z " /><path fill="rgb(69,93,117)" stroke="rgb(69,93,117)" stroke-width="1" opacity="1" d="M 312.5 64 L 312 65.5 L 311.5 68 L 311 65.5 L 312.5 64 Z " /><path fill="rgb(69,93,117)" stroke="rgb(69,93,117)" stroke-width="1" opacity="1" d="M 122.5 67 L 123 69 L 136.5 69 L 137.5 68 L 138 70 L 122.5 70 L 122.5 67 Z " /><path fill="rgb(69,93,117)" stroke="rgb(69,93,117)" stroke-width="1" opacity="1" d="M 185.5 67 L 186 69 L 199.5 69 L 200.5 68 L 201 70 L 185.5 70 L 185.5 67 Z " /><path fill="rgb(69,93,117)" stroke="rgb(69,93,117)" stroke-width="1" opacity="1" d="M 154.5 69 L 169 69.5 L 154.5 70 L 154.5 69 Z " /><path fill="rgb(69,93,117)" stroke="rgb(69,93,117)" stroke-width="1" opacity="1" d="M 403.5 116 L 404 161.5 L 403 161.5 L 403.5 116 Z " /><path fill="rgb(69,93,117)" stroke="rgb(69,93,117)" stroke-width="1" opacity="1" d="M 124.5 146 L 129 146.5 L 124.5 147 L 124.5 146 Z " /><path fill="rgb(69,93,117)" stroke="rgb(69,93,117)" stroke-width="1" opacity="1" d="M 149.5 146 L 153 146.5 L 149.5 147 L 149.5 146 Z " /><path fill="rgb(69,93,117)" stroke="rgb(69,93,117)" stroke-width="1" opacity="1" d="M 173.5 146 L 178 146.5 L 173.5 147 L 173.5 146 Z " /><path fill="rgb(69,93,117)" stroke="rgb(69,93,117)" stroke-width="1" opacity="1" d="M 198.5 146 L 202 146.5 L 198.5 147 L 198.5 146 Z " /><path fill="rgb(69,93,117)" stroke="rgb(69,93,117)" stroke-width="1" opacity="1" d="M 222.5 146 L 227 146.5 L 222.5 147 L 222.5 146 Z " /><path fill="rgb(69,93,117)" stroke="rgb(69,93,117)" stroke-width="1" opacity="1" d="M 246.5 146 L 251 146.5 L 246.5 147 L 246.5 146 Z " /><path fill="rgb(69,93,117)" stroke="rgb(69,93,117)" stroke-width="1" opacity="1" d="M 271.5 146 L 276 146.5 L 271.5 147 L 271.5 146 Z " /><path fill="rgb(69,93,117)" stroke="rgb(69,93,117)" stroke-width="1" opacity="1" d="M 295.5 146 L 300 146.5 L 295.5 147 L 295.5 146 Z " /><path fill="rgb(69,93,117)" stroke="rgb(69,93,117)" stroke-width="1" opacity="1" d="M 320.5 146 L 325 146.5 L 320.5 147 L 320.5 146 Z " /><path fill="rgb(69,93,117)" stroke="rgb(69,93,117)" stroke-width="1" opacity="1" d="M 122.5 147 L 120 150.5 L 119.5 152 L 119 150.5 L 122.5 147 Z " /><path fill="rgb(69,93,117)" stroke="rgb(69,93,117)" stroke-width="1" opacity="1" d="M 130.5 147 L 132.5 150 L 130.5 147 Z " /><path fill="rgb(69,93,117)" stroke="rgb(69,93,117)" stroke-width="1" opacity="1" d="M 179.5 147 L 181.5 150 L 179.5 147 Z " /><path fill="rgb(69,93,117)" stroke="rgb(69,93,117)" stroke-width="1" opacity="1" d="M 228.5 147 L 230.5 150 L 228.5 147 Z " /><path fill="rgb(69,93,117)" stroke="rgb(69,93,117)" stroke-width="1" opacity="1" d="M 244.5 147 L 242.5 150 L 244.5 147 Z " /><path fill="rgb(69,93,117)" stroke="rgb(69,93,117)" stroke-width="1" opacity="1" d="M 277.5 147 L 279.5 150 L 277.5 147 Z " /><path fill="rgb(69,93,117)" stroke="rgb(69,93,117)" stroke-width="1" opacity="1" d="M 293.5 147 L 291.5 150 L 293.5 147 Z " /><path fill="rgb(69,93,117)" stroke="rgb(69,93,117)" stroke-width="1" opacity="1" d="M 169.5 149 L 169 150.5 L 168.5 152 L 168 150.5 L 169.5 149 Z " /><path fill="rgb(69,93,117)" stroke="rgb(69,93,117)" stroke-width="1" opacity="1" d="M 218.5 149 L 217.5 151 L 218.5 149 Z " /><path fill="rgb(69,93,117)" stroke="rgb(69,93,117)" stroke-width="1" opacity="1" d="M 303.5 149 L 304.5 151 L 303.5 149 Z " /><path fill="rgb(69,93,117)" stroke="rgb(69,93,117)" stroke-width="1" opacity="1" d="M 329.5 151 L 330 153.5 L 329 153.5 L 329.5 151 Z " /><path fill="rgb(69,93,117)" stroke="rgb(69,93,117)" stroke-width="1" opacity="1" d="M 143.5 152 L 144 154.5 L 143 154.5 L 143.5 152 Z " /><path fill="rgb(69,93,117)" stroke="rgb(69,93,117)" stroke-width="1" opacity="1" d="M 389.5 192 L 388.5 194 L 389.5 192 Z " /><path fill="rgb(69,93,117)" stroke="rgb(69,93,117)" stroke-width="1" opacity="1" d="M 369.5 195 L 369 196.5 L 368.5 198 L 368 196.5 L 369.5 195 Z " /><path fill="rgb(69,93,117)" stroke="rgb(69,93,117)" stroke-width="1" opacity="1" d="M 394.5 195 L 393.5 197 L 394.5 195 Z " /><path fill="rgb(69,93,117)" stroke="rgb(69,93,117)" stroke-width="1" opacity="1" d="M 393.5 198 L 394.5 200 L 393.5 198 Z " /><path fill="rgb(69,93,117)" stroke="rgb(69,93,117)" stroke-width="1" opacity="1" d="M 397.5 198 L 396.5 200 L 397.5 198 Z " /><path fill="rgb(69,93,117)" stroke="rgb(69,93,117)" stroke-width="1" opacity="1" d="M 389.5 202 L 390.5 204 L 389.5 202 Z " /><path fill="rgb(69,93,117)" stroke="rgb(69,93,117)" stroke-width="1" opacity="1" d="M 400.5 203 L 399.5 205 L 400.5 203 Z " /><path fill="rgb(69,93,117)" stroke="rgb(69,93,117)" stroke-width="1" opacity="1" d="M 394.5 214 L 397 214.5 L 394.5 215 L 394.5 214 Z " /><path fill="rgb(69,93,117)" stroke="rgb(69,93,117)" stroke-width="1" opacity="1" d="M 390.5 216 L 389.5 218 L 390.5 216 Z " /><path fill="rgb(69,93,117)" stroke="rgb(69,93,117)" stroke-width="1" opacity="1" d="M 369.5 220 L 369 221.5 L 370 224.5 L 368 223.5 L 369.5 220 Z " /><path fill="rgb(69,93,117)" stroke="rgb(69,93,117)" stroke-width="1" opacity="1" d="M 394.5 220 L 393.5 222 L 394.5 220 Z " /><path fill="rgb(69,93,117)" stroke="rgb(69,93,117)" stroke-width="1" opacity="1" d="M 145.5 221 L 146.5 223 L 145.5 221 Z " /><path fill="rgb(69,93,117)" stroke="rgb(69,93,117)" stroke-width="1" opacity="1" d="M 213.5 221 L 214.5 223 L 213.5 221 Z " /><path fill="rgb(69,93,117)" stroke="rgb(69,93,117)" stroke-width="1" opacity="1" d="M 270.5 221 L 272 221.5 L 269.5 223 L 270.5 221 Z " /><path fill="rgb(69,93,117)" stroke="rgb(69,93,117)" stroke-width="1" opacity="1" d="M 303.5 221 L 305 221.5 L 300.5 225 L 303.5 221 Z " /><path fill="rgb(69,93,117)" stroke="rgb(69,93,117)" stroke-width="1" opacity="1" d="M 137.5 222 L 136.5 224 L 137.5 222 Z " /><path fill="rgb(69,93,117)" stroke="rgb(69,93,117)" stroke-width="1" opacity="1" d="M 205.5 222 L 204.5 224 L 205.5 222 Z " /><path fill="rgb(69,93,117)" stroke="rgb(69,93,117)" stroke-width="1" opacity="1" d="M 278.5 222 L 279.5 224 L 278.5 222 Z " /><path fill="rgb(69,93,117)" stroke="rgb(69,93,117)" stroke-width="1" opacity="1" d="M 311.5 222 L 312.5 224 L 311.5 222 Z " /><path fill="rgb(69,93,117)" stroke="rgb(69,93,117)" stroke-width="1" opacity="1" d="M 393.5 223 L 394.5 225 L 393.5 223 Z " /><path fill="rgb(69,93,117)" stroke="rgb(69,93,117)" stroke-width="1" opacity="1" d="M 181.5 224 L 183 226.5 L 182 226.5 L 181.5 224 Z " /><path fill="rgb(69,93,117)" stroke="rgb(69,93,117)" stroke-width="1" opacity="1" d="M 249.5 224 L 251 226.5 L 250 226.5 L 249.5 224 Z " /><path fill="rgb(69,93,117)" stroke="rgb(69,93,117)" stroke-width="1" opacity="1" d="M 299.5 227 L 300 229.5 L 299 229.5 L 299.5 227 Z " /><path fill="rgb(69,93,117)" stroke="rgb(69,93,117)" stroke-width="1" opacity="1" d="M 389.5 227 L 391.5 230 L 389.5 227 Z " /><path fill="rgb(69,93,117)" stroke="rgb(69,93,117)" stroke-width="1" opacity="1" d="M 168.5 230 L 170 232.5 L 168 231.5 L 168.5 230 Z " /><path fill="rgb(69,93,117)" stroke="rgb(69,93,117)" stroke-width="1" opacity="1" d="M 236.5 230 L 238 232.5 L 236 231.5 L 236.5 230 Z " /><path fill="rgb(69,93,117)" stroke="rgb(69,93,117)" stroke-width="1" opacity="1" d="M 394.5 230 L 397 230.5 L 394.5 231 L 394.5 230 Z " /><path fill="rgb(69,93,117)" stroke="rgb(69,93,117)" stroke-width="1" opacity="1" d="M 148.5 232 L 146.5 235 L 148.5 232 Z " /><path fill="rgb(69,93,117)" stroke="rgb(69,93,117)" stroke-width="1" opacity="1" d="M 216.5 232 L 214.5 235 L 216.5 232 Z " /><path fill="rgb(69,93,117)" stroke="rgb(69,93,117)" stroke-width="1" opacity="1" d="M 267.5 232 L 269.5 235 L 267.5 232 Z " /><path fill="rgb(69,93,117)" stroke="rgb(69,93,117)" stroke-width="1" opacity="1" d="M 301.5 233 L 302.5 235 L 301.5 233 Z " /><path fill="rgb(69,93,117)" stroke="rgb(69,93,117)" stroke-width="1" opacity="1" d="M 138.5 234 L 141 235.5 L 139.5 236 L 138.5 234 Z " /><path fill="rgb(69,93,117)" stroke="rgb(69,93,117)" stroke-width="1" opacity="1" d="M 277.5 234 L 276.5 236 L 275 235.5 L 277.5 234 Z " /><path fill="rgb(69,93,117)" stroke="rgb(69,93,117)" stroke-width="1" opacity="1" d="M 303.5 241 L 302.5 243 L 303.5 241 Z " /><path fill="rgb(69,93,117)" stroke="rgb(69,93,117)" stroke-width="1" opacity="1" d="M 310.5 241 L 313.5 245 L 310.5 241 Z " /><path fill="rgb(69,93,117)" stroke="rgb(69,93,117)" stroke-width="1" opacity="1" d="M 137.5 242 L 136.5 244 L 137.5 242 Z " /><path fill="rgb(69,93,117)" stroke="rgb(69,93,117)" stroke-width="1" opacity="1" d="M 170.5 242 L 169.5 244 L 170.5 242 Z " /><path fill="rgb(69,93,117)" stroke="rgb(69,93,117)" stroke-width="1" opacity="1" d="M 205.5 242 L 204.5 244 L 205.5 242 Z " /><path fill="rgb(69,93,117)" stroke="rgb(69,93,117)" stroke-width="1" opacity="1" d="M 238.5 242 L 237.5 244 L 238.5 242 Z " /><path fill="rgb(69,93,117)" stroke="rgb(69,93,117)" stroke-width="1" opacity="1" d="M 278.5 242 L 279.5 244 L 278.5 242 Z " /><path fill="rgb(69,93,117)" stroke="rgb(69,93,117)" stroke-width="1" opacity="1" d="M 299.5 247 L 300 271 L 314 271 L 314 248.5 L 315 248.5 L 315 272 L 299 272 L 299.5 247 Z " /><path fill="rgb(69,93,117)" stroke="rgb(69,93,117)" stroke-width="1" opacity="1" d="M 281.5 249 L 282 270.5 L 280.5 272 L 266.5 272 L 266.5 271 L 281 271 L 281.5 249 Z " /><path fill="rgb(69,93,117)" stroke="rgb(69,93,117)" stroke-width="1" opacity="1" d="M 397.5 249 L 396.5 251 L 395 250.5 L 397.5 249 Z " /><path fill="rgb(69,93,117)" stroke="rgb(69,93,117)" stroke-width="1" opacity="1" d="M 402.5 252 L 400.5 255 L 402.5 252 Z " /><path fill="rgb(69,93,117)" stroke="rgb(69,93,117)" stroke-width="1" opacity="1" d="M 389.5 253 L 390.5 255 L 389.5 253 Z " /><path fill="rgb(69,93,117)" stroke="rgb(69,93,117)" stroke-width="1" opacity="1" d="M 388.5 265 L 389.5 267 L 388.5 265 Z " /><path fill="rgb(69,93,117)" stroke="rgb(69,93,117)" stroke-width="1" opacity="1" d="M 391.5 270 L 392 272.5 L 391 272.5 L 391.5 270 Z " /><path fill="rgb(69,93,117)" stroke="rgb(69,93,117)" stroke-width="1" opacity="1" d="M 135.5 271 L 150 271.5 L 135.5 272 L 135.5 271 Z " /><path fill="rgb(69,93,117)" stroke="rgb(69,93,117)" stroke-width="1" opacity="1" d="M 168.5 271 L 183 271.5 L 168.5 272 L 168.5 271 Z " /><path fill="rgb(69,93,117)" stroke="rgb(69,93,117)" stroke-width="1" opacity="1" d="M 203.5 271 L 218 271.5 L 203.5 272 L 203.5 271 Z " /><path fill="rgb(69,93,117)" stroke="rgb(69,93,117)" stroke-width="1" opacity="1" d="M 236.5 271 L 251 271.5 L 236.5 272 L 236.5 271 Z " /><path fill="rgb(69,93,117)" stroke="rgb(69,93,117)" stroke-width="1" opacity="1" d="M 256.5 308 L 260 309.5 L 258.5 309 Q 255.5 309.5 256.5 308 Z " /><path fill="rgb(69,93,117)" stroke="rgb(69,93,117)" stroke-width="1" opacity="1" d="M 284.5 308 L 287 308.5 L 283.5 310 L 284.5 308 Z " /><path fill="rgb(69,93,117)" stroke="rgb(69,93,117)" stroke-width="1" opacity="1" d="M 188.5 309 L 187.5 311 L 188.5 309 Z " /><path fill="rgb(69,93,117)" stroke="rgb(69,93,117)" stroke-width="1" opacity="1" d="M 228.5 309 L 230.5 312 L 228.5 309 Z " /><path fill="rgb(69,93,117)" stroke="rgb(69,93,117)" stroke-width="1" opacity="1" d="M 251.5 309 L 249.5 312 L 251.5 309 Z " /><path fill="rgb(69,93,117)" stroke="rgb(69,93,117)" stroke-width="1" opacity="1" d="M 291.5 309 L 293.5 312 L 291.5 309 Z " /><path fill="rgb(69,93,117)" stroke="rgb(69,93,117)" stroke-width="1" opacity="1" d="M 314.5 309 L 312.5 312 L 314.5 309 Z " /><path fill="rgb(69,93,117)" stroke="rgb(69,93,117)" stroke-width="1" opacity="1" d="M 155.5 311 L 155 312.5 L 154.5 314 L 154 312.5 L 155.5 311 Z " /><path fill="rgb(69,93,117)" stroke="rgb(69,93,117)" stroke-width="1" opacity="1" d="M 218.5 311 L 217.5 313 L 218.5 311 Z " /><path fill="rgb(69,93,117)" stroke="rgb(69,93,117)" stroke-width="1" opacity="1" d="M 324.5 311 L 325.5 313 L 324.5 311 Z " /><path fill="rgb(69,93,117)" stroke="rgb(69,93,117)" stroke-width="1" opacity="1" d="M 122.5 314 L 123 316.5 L 122 316.5 L 122.5 314 Z " /><path fill="rgb(69,93,117)" stroke="rgb(69,93,117)" stroke-width="1" opacity="1" d="M 185.5 314 L 186 316.5 L 185 316.5 L 185.5 314 Z " /><path fill="rgb(69,93,117)" stroke="rgb(69,93,117)" stroke-width="1" opacity="1" d="M 398.5 340 L 397.5 342 L 398.5 340 Z " /><path fill="rgb(69,93,117)" stroke="rgb(69,93,117)" stroke-width="1" opacity="1" d="M 408.5 340 L 409.5 342 L 408.5 340 Z " /><path fill="rgb(69,93,117)" stroke="rgb(69,93,117)" stroke-width="1" opacity="1" d="M 395.5 345 L 396 366.5 L 395 366.5 L 395.5 345 Z " /><path fill="rgb(69,93,117)" stroke="rgb(69,93,117)" stroke-width="1" opacity="1" d="M 411.5 346 L 412 366.5 L 411 366.5 L 411.5 346 Z " /><path fill="rgb(69,93,117)" stroke="rgb(69,93,117)" stroke-width="1" opacity="1" d="M 396.5 369 L 399.5 373 L 396.5 369 Z " /><path fill="rgb(69,93,117)" stroke="rgb(69,93,117)" stroke-width="1" opacity="1" d="M 410.5 369 L 407.5 373 L 410.5 369 Z " /><path fill="rgb(69,93,117)" stroke="rgb(69,93,117)" stroke-width="1" opacity="1" d="M 402.5 373 L 405 373.5 L 402.5 374 L 402.5 373 Z " /><path fill="rgb(245,174,139)" stroke="rgb(245,174,139)" stroke-width="1" opacity="1" d="M 334.5 38 L 335 87.5 L 334 87.5 L 334.5 38 Z " /><path fill="rgb(245,174,139)" stroke="rgb(245,174,139)" stroke-width="1" opacity="1" d="M 219.5 62 L 218.5 64 L 219.5 62 Z " /><path fill="rgb(245,174,139)" stroke="rgb(245,174,139)" stroke-width="1" opacity="1" d="M 216.5 68 L 217 70 L 232 70 L 232 77.5 L 236 80 L 239 84.5 L 239 87 Q 241.7 88.1 241 85.5 L 248 77.5 L 248 70 L 264 70 L 264 76.5 Q 261.8 77.8 264.5 79 L 269 82.5 L 271 86.5 L 271 115 L 209.5 115 L 208 113.5 Q 206.8 108.7 209 107.5 L 209 86.5 L 214.5 79 L 217 77.5 L 216 76.5 L 216.5 68 Z " /><path fill="rgb(245,174,139)" stroke="rgb(245,174,139)" stroke-width="1" opacity="1" d="M 363.5 117 L 364 160.5 L 363 160.5 L 363.5 117 Z " /><path fill="rgb(245,174,139)" stroke="rgb(245,174,139)" stroke-width="1" opacity="1" d="M 334.5 123 L 335 167.5 L 334 167.5 L 334.5 123 Z " /><path fill="rgb(245,174,139)" stroke="rgb(245,174,139)" stroke-width="1" opacity="1" d="M 334.5 205 L 335 271.5 L 334 271.5 L 334.5 205 Z " /><path fill="rgb(245,174,139)" stroke="rgb(245,174,139)" stroke-width="1" opacity="1" d="M 170.5 222 L 169.5 224 L 170.5 222 Z " /><path fill="rgb(245,174,139)" stroke="rgb(245,174,139)" stroke-width="1" opacity="1" d="M 238.5 222 L 237.5 224 L 238.5 222 Z " /><path fill="rgb(245,174,139)" stroke="rgb(245,174,139)" stroke-width="1" opacity="1" d="M 180.5 242 L 181.5 244 L 180.5 242 Z " /><path fill="rgb(245,174,139)" stroke="rgb(245,174,139)" stroke-width="1" opacity="1" d="M 134.5 248 L 135 271.5 L 134 271.5 L 134.5 248 Z " /><path fill="rgb(245,174,139)" stroke="rgb(245,174,139)" stroke-width="1" opacity="1" d="M 202.5 248 L 203 271.5 L 202 271.5 L 202.5 248 Z " /><path fill="rgb(245,174,139)" stroke="rgb(245,174,139)" stroke-width="1" opacity="1" d="M 368.5 249 L 369.5 251 L 368.5 249 Z " /><path fill="rgb(245,174,139)" stroke="rgb(245,174,139)" stroke-width="1" opacity="1" d="M 393.5 249 L 394.5 251 L 393.5 249 Z " /><path fill="rgb(245,174,139)" stroke="rgb(245,174,139)" stroke-width="1" opacity="1" d="M 334.5 287 L 335 337.5 L 334 338.5 L 334 355.5 L 334 357.5 L 331.5 362 L 117.5 362 L 114 358.5 L 114 335.5 Q 115.5 329 120.5 326 L 122 325.5 L 122 317 L 138 317 L 138 325.5 L 139.5 326 Q 144.8 328.7 145.5 336 L 150.5 327 L 154 324.5 L 153 315.5 L 154 315.5 L 154.5 317 L 169 317 L 169 324.5 L 173 327 L 177.5 335 Q 179 327.5 185 324.5 L 185 317 L 201 317 L 201 325.5 L 202.5 326 Q 207.3 329.2 208.5 336 L 213.5 327 L 217 324.5 L 216 315.5 L 217 315.5 L 217.5 317 L 232 317 L 232 325.5 L 233.5 326 Q 238.8 328.6 239 335 Q 242 336.3 241 332.5 L 246.5 326 L 248 325.5 L 248 317 L 263 317 L 263 324.5 L 265.5 327 L 268 328.5 L 271.5 337 Q 271.9 329.9 276.5 327 L 280 324.5 L 280 317 L 295 317 L 295 325.5 L 296.5 326 Q 301.7 328.6 302 335 Q 305 336.3 304 332.5 L 309.5 326 L 311 325.5 L 311 317 L 325.5 317 L 326 315.5 L 327 315.5 L 326 324.5 L 331 328.5 L 333.5 334 L 334.5 287 Z " /><path fill="rgb(245,174,139)" stroke="rgb(245,174,139)" stroke-width="1" opacity="1" d="M 404.5 300 L 405 305 L 365 304.5 L 404 304 L 404.5 300 Z " /><path fill="rgb(206,212,221)" stroke="rgb(206,212,221)" stroke-width="1" opacity="1" d="M 331.5 33 L 333.5 36 L 331.5 33 Z " /><path fill="rgb(206,212,221)" stroke="rgb(206,212,221)" stroke-width="1" opacity="1" d="M 114.5 37 L 115 88.5 L 114 88.5 L 114.5 37 Z " /><path fill="rgb(206,212,221)" stroke="rgb(206,212,221)" stroke-width="1" opacity="1" d="M 157.5 61 L 154.5 65 L 157.5 61 Z " /><path fill="rgb(206,212,221)" stroke="rgb(206,212,221)" stroke-width="1" opacity="1" d="M 166.5 62 L 167.5 64 L 166.5 62 Z " /><path fill="rgb(206,212,221)" stroke="rgb(206,212,221)" stroke-width="1" opacity="1" d="M 229.5 62 L 230.5 64 L 229.5 62 Z " /><path fill="rgb(206,212,221)" stroke="rgb(206,212,221)" stroke-width="1" opacity="1" d="M 250.5 62 L 249.5 64 L 250.5 62 Z " /><path fill="rgb(206,212,221)" stroke="rgb(206,212,221)" stroke-width="1" opacity="1" d="M 292.5 62 L 293.5 64 L 292.5 62 Z " /><path fill="rgb(206,212,221)" stroke="rgb(206,212,221)" stroke-width="1" opacity="1" d="M 313.5 62 L 312.5 64 L 313.5 62 Z " /><path fill="rgb(206,212,221)" stroke="rgb(206,212,221)" stroke-width="1" opacity="1" d="M 153.5 67 L 154 69.5 L 153 69.5 L 153.5 67 Z " /><path fill="rgb(206,212,221)" stroke="rgb(206,212,221)" stroke-width="1" opacity="1" d="M 279.5 70 L 280 77.5 L 273 83.5 L 279 77.5 L 279.5 70 Z " /><path fill="rgb(206,212,221)" stroke="rgb(206,212,221)" stroke-width="1" opacity="1" d="M 326.5 70 L 327 77.5 Q 332.5 80 334 86.5 L 333 86.5 Q 331.5 80 326 77.5 L 326.5 70 Z " /><path fill="rgb(206,212,221)" stroke="rgb(206,212,221)" stroke-width="1" opacity="1" d="M 309.5 78 L 311 78.5 L 305.5 83 L 309.5 78 Z " /><path fill="rgb(206,212,221)" stroke="rgb(206,212,221)" stroke-width="1" opacity="1" d="M 297.5 79 Q 301.5 81.3 302 86 Q 305 84.8 304 88.5 L 302 89.5 L 302 86.5 L 297.5 79 Z " /><path fill="rgb(206,212,221)" stroke="rgb(206,212,221)" stroke-width="1" opacity="1" d="M 271.5 88 L 272 114 L 334.5 114 L 335 114.5 L 335 123 L 115.5 123 L 115 123.5 L 115 164.5 L 115 166.5 L 114.5 169 L 114 115 L 270.5 115 L 271 114.5 L 271.5 88 Z " /><path fill="rgb(206,212,221)" stroke="rgb(206,212,221)" stroke-width="1" opacity="1" d="M 154.5 146 L 155.5 148 L 154.5 146 Z " /><path fill="rgb(206,212,221)" stroke="rgb(206,212,221)" stroke-width="1" opacity="1" d="M 121.5 147 L 120.5 149 L 121.5 147 Z " /><path fill="rgb(206,212,221)" stroke="rgb(206,212,221)" stroke-width="1" opacity="1" d="M 131.5 147 L 132.5 149 L 131.5 147 Z " /><path fill="rgb(206,212,221)" stroke="rgb(206,212,221)" stroke-width="1" opacity="1" d="M 170.5 147 L 169.5 149 L 170.5 147 Z " /><path fill="rgb(206,212,221)" stroke="rgb(206,212,221)" stroke-width="1" opacity="1" d="M 219.5 147 L 217.5 150 L 219.5 147 Z " /><path fill="rgb(206,212,221)" stroke="rgb(206,212,221)" stroke-width="1" opacity="1" d="M 134.5 153 L 135 161.5 L 137 163.5 L 134 161.5 L 134.5 153 Z " /><path fill="rgb(206,212,221)" stroke="rgb(206,212,221)" stroke-width="1" opacity="1" d="M 183.5 153 L 184 161.5 L 186 163.5 L 183 161.5 L 183.5 153 Z " /><path fill="rgb(206,212,221)" stroke="rgb(206,212,221)" stroke-width="1" opacity="1" d="M 232.5 153 L 233 161.5 L 235 163.5 L 232 161.5 L 232.5 153 Z " /><path fill="rgb(206,212,221)" stroke="rgb(206,212,221)" stroke-width="1" opacity="1" d="M 118.5 155 L 119 161.5 L 116 163.5 L 118 161.5 L 118.5 155 Z " /><path fill="rgb(206,212,221)" stroke="rgb(206,212,221)" stroke-width="1" opacity="1" d="M 167.5 155 L 168 160.5 L 167 160.5 L 167.5 155 Z " /><path fill="rgb(206,212,221)" stroke="rgb(206,212,221)" stroke-width="1" opacity="1" d="M 216.5 156 L 217 160.5 L 216 160.5 L 216.5 156 Z " /><path fill="rgb(206,212,221)" stroke="rgb(206,212,221)" stroke-width="1" opacity="1" d="M 256.5 156 L 257 160.5 L 256 160.5 L 256.5 156 Z " /><path fill="rgb(206,212,221)" stroke="rgb(206,212,221)" stroke-width="1" opacity="1" d="M 265.5 156 L 266 160.5 L 265 160.5 L 265.5 156 Z " /><path fill="rgb(206,212,221)" stroke="rgb(206,212,221)" stroke-width="1" opacity="1" d="M 305.5 156 L 306 160.5 L 305 160.5 L 305.5 156 Z " /><path fill="rgb(206,212,221)" stroke="rgb(206,212,221)" stroke-width="1" opacity="1" d="M 142.5 161 L 141.5 163 L 142.5 161 Z " /><path fill="rgb(206,212,221)" stroke="rgb(206,212,221)" stroke-width="1" opacity="1" d="M 159.5 161 L 160.5 163 L 159.5 161 Z " /><path fill="rgb(206,212,221)" stroke="rgb(206,212,221)" stroke-width="1" opacity="1" d="M 191.5 161 L 190.5 163 L 191.5 161 Z " /><path fill="rgb(206,212,221)" stroke="rgb(206,212,221)" stroke-width="1" opacity="1" d="M 240.5 161 L 239.5 163 L 240.5 161 Z " /><path fill="rgb(206,212,221)" stroke="rgb(206,212,221)" stroke-width="1" opacity="1" d="M 281.5 161 L 283.5 164 L 281.5 161 Z " /><path fill="rgb(206,212,221)" stroke="rgb(206,212,221)" stroke-width="1" opacity="1" d="M 289.5 161 L 287.5 164 L 289.5 161 Z " /><path fill="rgb(206,212,221)" stroke="rgb(206,212,221)" stroke-width="1" opacity="1" d="M 330.5 161 L 331.5 163 L 330.5 161 Z " /><path fill="rgb(206,212,221)" stroke="rgb(206,212,221)" stroke-width="1" opacity="1" d="M 365.5 162 L 402 162.5 L 365.5 163 L 365.5 162 Z " /><path fill="rgb(206,212,221)" stroke="rgb(206,212,221)" stroke-width="1" opacity="1" d="M 165.5 163 L 164.5 165 L 165.5 163 Z " /><path fill="rgb(206,212,221)" stroke="rgb(206,212,221)" stroke-width="1" opacity="1" d="M 214.5 163 L 213.5 165 L 214.5 163 Z " /><path fill="rgb(206,212,221)" stroke="rgb(206,212,221)" stroke-width="1" opacity="1" d="M 263.5 163 L 262.5 165 L 263.5 163 Z " /><path fill="rgb(206,212,221)" stroke="rgb(206,212,221)" stroke-width="1" opacity="1" d="M 307.5 163 L 308.5 165 L 307.5 163 Z " /><path fill="rgb(206,212,221)" stroke="rgb(206,212,221)" stroke-width="1" opacity="1" d="M 140.5 164 L 140 165.5 L 139.5 167 L 139 165.5 L 140.5 164 Z " /><path fill="rgb(206,212,221)" stroke="rgb(206,212,221)" stroke-width="1" opacity="1" d="M 161.5 164 L 164 168.5 L 163 168.5 L 161.5 164 Z " /><path fill="rgb(206,212,221)" stroke="rgb(206,212,221)" stroke-width="1" opacity="1" d="M 211 166 Q 214 164.8 213 168.5 L 211 167.5 L 211 166 Z " /><path fill="rgb(206,212,221)" stroke="rgb(206,212,221)" stroke-width="1" opacity="1" d="M 260 166 Q 263 165 262 168 Q 259 169 260 166 Z " /><path fill="rgb(206,212,221)" stroke="rgb(206,212,221)" stroke-width="1" opacity="1" d="M 309 166 Q 312 165 311 168 Q 308 169 309 166 Z " /><path fill="rgb(206,212,221)" stroke="rgb(206,212,221)" stroke-width="1" opacity="1" d="M 375.5 191 L 376.5 193 L 375.5 191 Z " /><path fill="rgb(206,212,221)" stroke="rgb(206,212,221)" stroke-width="1" opacity="1" d="M 400.5 191 L 401.5 193 L 400.5 191 Z " /><path fill="rgb(206,212,221)" stroke="rgb(206,212,221)" stroke-width="1" opacity="1" d="M 114 197 L 334.5 197 L 335 197.5 L 335 205 L 115.5 205 L 115 205.5 L 115 272 L 149.5 272 L 150.5 271 L 151.5 272 L 167 272 L 167.5 247 L 168 272 L 183 272 L 183 248.5 L 184 248.5 L 184 272 L 218 272 L 218.5 248 L 219 272 L 235 272 L 235 247.5 L 236 247.5 L 236 272 L 251 272 L 251.5 247 L 252 272 L 334.5 272 L 335 272.5 L 335 287 L 309.5 287 L 305.5 288 L 304.5 287 L 276.5 287 L 272.5 288 L 271.5 287 L 245.5 287 L 241.5 288 L 240.5 287 L 212.5 287 L 208.5 288 L 207.5 287 L 177.5 287 L 173.5 288 L 172.5 287 L 144.5 287 L 140.5 288 L 139.5 287 L 115 287 L 114.5 335 L 114 197 Z " /><path fill="rgb(206,212,221)" stroke="rgb(206,212,221)" stroke-width="1" opacity="1" d="M 375.5 216 L 376.5 218 L 375.5 216 Z " /><path fill="rgb(206,212,221)" stroke="rgb(206,212,221)" stroke-width="1" opacity="1" d="M 140.5 220 L 144 220.5 L 140.5 221 L 140.5 220 Z " /><path fill="rgb(206,212,221)" stroke="rgb(206,212,221)" stroke-width="1" opacity="1" d="M 174.5 220 L 177 220.5 L 174.5 221 L 174.5 220 Z " /><path fill="rgb(206,212,221)" stroke="rgb(206,212,221)" stroke-width="1" opacity="1" d="M 209.5 220 L 212 220.5 L 209.5 221 L 209.5 220 Z " /><path fill="rgb(206,212,221)" stroke="rgb(206,212,221)" stroke-width="1" opacity="1" d="M 242.5 220 L 245 220.5 L 242.5 221 L 242.5 220 Z " /><path fill="rgb(206,212,221)" stroke="rgb(206,212,221)" stroke-width="1" opacity="1" d="M 272.5 220 L 276 220.5 L 272.5 221 L 272.5 220 Z " /><path fill="rgb(206,212,221)" stroke="rgb(206,212,221)" stroke-width="1" opacity="1" d="M 305.5 220 L 309 220.5 L 305.5 221 L 305.5 220 Z " /><path fill="rgb(206,212,221)" stroke="rgb(206,212,221)" stroke-width="1" opacity="1" d="M 146.5 221 L 148.5 224 L 146.5 221 Z " /><path fill="rgb(206,212,221)" stroke="rgb(206,212,221)" stroke-width="1" opacity="1" d="M 179.5 221 L 182.5 225 L 179.5 221 Z " /><path fill="rgb(206,212,221)" stroke="rgb(206,212,221)" stroke-width="1" opacity="1" d="M 214.5 221 L 216.5 224 L 214.5 221 Z " /><path fill="rgb(206,212,221)" stroke="rgb(206,212,221)" stroke-width="1" opacity="1" d="M 269.5 221 L 267.5 224 L 269.5 221 Z " /><path fill="rgb(206,212,221)" stroke="rgb(206,212,221)" stroke-width="1" opacity="1" d="M 301.5 222 L 300.5 224 L 301.5 222 Z " /><path fill="rgb(206,212,221)" stroke="rgb(206,212,221)" stroke-width="1" opacity="1" d="M 249.5 223 L 250.5 225 L 249.5 223 Z " /><path fill="rgb(206,212,221)" stroke="rgb(206,212,221)" stroke-width="1" opacity="1" d="M 167.5 227 L 168 229.5 L 167 229.5 L 167.5 227 Z " /><path fill="rgb(206,212,221)" stroke="rgb(206,212,221)" stroke-width="1" opacity="1" d="M 235.5 227 L 236 229.5 L 235 229.5 L 235.5 227 Z " /><path fill="rgb(206,212,221)" stroke="rgb(206,212,221)" stroke-width="1" opacity="1" d="M 376.5 227 L 375.5 229 L 376.5 227 Z " /><path fill="rgb(206,212,221)" stroke="rgb(206,212,221)" stroke-width="1" opacity="1" d="M 168.5 232 L 170.5 235 L 168.5 232 Z " /><path fill="rgb(206,212,221)" stroke="rgb(206,212,221)" stroke-width="1" opacity="1" d="M 236.5 232 L 238.5 235 L 236.5 232 Z " /><path fill="rgb(206,212,221)" stroke="rgb(206,212,221)" stroke-width="1" opacity="1" d="M 148.5 233 L 147.5 235 L 148.5 233 Z " /><path fill="rgb(206,212,221)" stroke="rgb(206,212,221)" stroke-width="1" opacity="1" d="M 181.5 233 L 180.5 235 L 181.5 233 Z " /><path fill="rgb(206,212,221)" stroke="rgb(206,212,221)" stroke-width="1" opacity="1" d="M 216.5 233 L 215.5 235 L 216.5 233 Z " /><path fill="rgb(206,212,221)" stroke="rgb(206,212,221)" stroke-width="1" opacity="1" d="M 249.5 233 L 248.5 235 L 249.5 233 Z " /><path fill="rgb(206,212,221)" stroke="rgb(206,212,221)" stroke-width="1" opacity="1" d="M 267.5 233 L 268.5 235 L 267.5 233 Z " /><path fill="rgb(206,212,221)" stroke="rgb(206,212,221)" stroke-width="1" opacity="1" d="M 137.5 234 L 138.5 236 L 137.5 234 Z " /><path fill="rgb(206,212,221)" stroke="rgb(206,212,221)" stroke-width="1" opacity="1" d="M 205.5 234 L 206.5 236 L 205.5 234 Z " /><path fill="rgb(206,212,221)" stroke="rgb(206,212,221)" stroke-width="1" opacity="1" d="M 278.5 234 L 277.5 236 L 278.5 234 Z " /><path fill="rgb(206,212,221)" stroke="rgb(206,212,221)" stroke-width="1" opacity="1" d="M 302.5 241 L 300.5 244 L 302.5 241 Z " /><path fill="rgb(206,212,221)" stroke="rgb(206,212,221)" stroke-width="1" opacity="1" d="M 400.5 242 L 401.5 244 L 400.5 242 Z " /><path fill="rgb(206,212,221)" stroke="rgb(206,212,221)" stroke-width="1" opacity="1" d="M 148.5 243 L 149.5 245 L 148.5 243 Z " /><path fill="rgb(206,212,221)" stroke="rgb(206,212,221)" stroke-width="1" opacity="1" d="M 216.5 243 L 217.5 245 L 216.5 243 Z " /><path fill="rgb(206,212,221)" stroke="rgb(206,212,221)" stroke-width="1" opacity="1" d="M 377.5 276 L 378.5 278 L 377.5 276 Z " /><path fill="rgb(206,212,221)" stroke="rgb(206,212,221)" stroke-width="1" opacity="1" d="M 365 300 L 403.5 300 L 404 304 L 365.5 304 L 365 300 Z " /><path fill="rgb(206,212,221)" stroke="rgb(206,212,221)" stroke-width="1" opacity="1" d="M 220.5 308 L 217.5 312 L 220.5 308 Z " /><path fill="rgb(206,212,221)" stroke="rgb(206,212,221)" stroke-width="1" opacity="1" d="M 259.5 308 L 260.5 310 L 259.5 308 Z " /><path fill="rgb(206,212,221)" stroke="rgb(206,212,221)" stroke-width="1" opacity="1" d="M 283.5 308 L 282.5 310 L 283.5 308 Z " /><path fill="rgb(206,212,221)" stroke="rgb(206,212,221)" stroke-width="1" opacity="1" d="M 322.5 308 L 325.5 312 L 322.5 308 Z " /><path fill="rgb(206,212,221)" stroke="rgb(206,212,221)" stroke-width="1" opacity="1" d="M 166.5 309 L 167.5 311 L 166.5 309 Z " /><path fill="rgb(206,212,221)" stroke="rgb(206,212,221)" stroke-width="1" opacity="1" d="M 229.5 309 L 230.5 311 L 229.5 309 Z " /><path fill="rgb(206,212,221)" stroke="rgb(206,212,221)" stroke-width="1" opacity="1" d="M 292.5 309 L 293.5 311 L 292.5 309 Z " /><path fill="rgb(206,212,221)" stroke="rgb(206,212,221)" stroke-width="1" opacity="1" d="M 313.5 309 L 312.5 311 L 313.5 309 Z " /><path fill="rgb(206,212,221)" stroke="rgb(206,212,221)" stroke-width="1" opacity="1" d="M 216.5 317 L 217 323.5 L 216 323.5 L 216.5 317 Z " /><path fill="rgb(206,212,221)" stroke="rgb(206,212,221)" stroke-width="1" opacity="1" d="M 263.5 317 L 264 324.5 L 263 324.5 L 263.5 317 Z " /><path fill="rgb(206,212,221)" stroke="rgb(206,212,221)" stroke-width="1" opacity="1" d="M 279.5 317 L 280 324.5 L 279 324.5 L 279.5 317 Z " /><path fill="rgb(206,212,221)" stroke="rgb(206,212,221)" stroke-width="1" opacity="1" d="M 326.5 317 L 327 323.5 L 326 323.5 L 326.5 317 Z " /><path fill="rgb(206,212,221)" stroke="rgb(206,212,221)" stroke-width="1" opacity="1" d="M 334.5 338 L 335 355.5 L 334 355.5 L 334.5 338 Z " /><path fill="rgb(206,212,221)" stroke="rgb(206,212,221)" stroke-width="1" opacity="1" d="M 402.5 339 L 410 342.5 L 411 344.5 L 411 367.5 L 406.5 373 Q 397.5 374.5 396 368.5 L 396 344.5 L 399.5 340 L 402.5 339 Z " /><path fill="rgb(254,254,254)" stroke="rgb(254,254,254)" stroke-width="1" opacity="1" d="M 122 70 L 138 70 L 138 78.5 L 139.5 79 Q 144.3 82.2 145.5 89 Q 146.7 82.2 151.5 79 L 154 77.5 L 154 70 L 169 70 L 169 77.5 L 171.5 80 L 174 81.5 L 177.5 88 Q 179 80.5 185 77.5 L 185 70 L 201 70 L 201 78.5 L 202.5 79 L 208 86.5 L 208 115 L 178.5 115 L 177.5 114 L 176.5 115 L 146.5 115 L 144.5 115 L 115.5 115 L 114 113.5 Q 112.7 108.7 115 107.5 L 115 86.5 L 120.5 79 L 122 78.5 L 122 70 Z " /><path fill="rgb(254,254,254)" stroke="rgb(254,254,254)" stroke-width="1" opacity="1" d="M 368.5 190 Q 376.4 189.1 378 194.5 Q 379 201 375.5 203 L 370.5 205 L 364 200.5 L 363 197.5 L 366.5 191 L 368.5 190 Z M 371 194 L 368 195 L 368 200 L 373 200 L 374 197 L 371 194 Z " /><path fill="rgb(254,254,254)" stroke="rgb(254,254,254)" stroke-width="1" opacity="1" d="M 393.5 190 Q 400.4 189.1 402 193.5 L 403 199.5 L 400.5 203 L 395.5 205 L 389 200.5 L 388 196.5 L 391.5 191 L 393.5 190 Z M 396 194 L 393 195 Q 391 203 398 200 L 399 197 L 396 194 Z " /><path fill="rgb(254,254,254)" stroke="rgb(254,254,254)" stroke-width="1" opacity="1" d="M 369.5 215 Q 375.1 214.9 377 218.5 L 378 224.5 L 374.5 229 L 369.5 230 L 365 228 L 363 222.5 L 365 217 L 369.5 215 Z M 371 219 L 370 220 L 368 220 L 368 225 L 371 226 L 373 225 L 374 222 L 371 219 Z " /><path fill="rgb(254,254,254)" stroke="rgb(254,254,254)" stroke-width="1" opacity="1" d="M 394.5 215 Q 400.1 214.9 402 218.5 L 403 224.5 L 399.5 229 L 394.5 230 L 390 228 L 388 222.5 L 390 217 L 394.5 215 Z M 396 219 L 395 220 L 393 220 L 393 225 L 396 226 L 398 225 L 399 222 L 396 219 Z " /><path fill="rgb(254,254,254)" stroke="rgb(254,254,254)" stroke-width="1" opacity="1" d="M 368.5 241 L 373.5 241 L 378 245.5 Q 379 252 375.5 254 L 370.5 256 L 364 251.5 L 363 248.5 L 366.5 242 L 368.5 241 Z M 370 245 L 368 247 Q 366 253 373 251 L 374 248 Q 374 244 370 245 Z " /><path fill="rgb(254,254,254)" stroke="rgb(254,254,254)" stroke-width="1" opacity="1" d="M 393.5 241 Q 400.8 239.8 402 244.5 L 403 250.5 L 401 254 L 395.5 256 L 389 251.5 L 388 247.5 L 391.5 242 L 393.5 241 Z M 395 245 L 393 247 L 393 251 L 398 251 L 399 248 Q 399 244 395 245 Z " /><path fill="rgb(254,254,254)" stroke="rgb(254,254,254)" stroke-width="1" opacity="1" d="M 383.5 264 L 389 266 L 391 272.5 L 387.5 278 L 381.5 279 L 377 275.5 L 376 270.5 L 378 266 L 383.5 264 Z M 381 269 L 380 272 L 383 275 Q 387 275 387 273 L 386 271 L 386 269 L 381 269 Z " /><path fill="rgb(230,232,236)" stroke="rgb(230,232,236)" stroke-width="1" opacity="1" d="M 118.5 33 L 330.5 33 L 334 36.5 L 333.5 85 L 327 77.5 Q 329.5 64.5 322.5 61 L 318.5 60 L 312 63.5 L 310 69.5 L 311 70.5 L 311 78 L 305 82.5 L 304 86 Q 301.3 87.1 302 84.5 L 297.5 79 L 295 77.5 L 295 65.5 L 292.5 62 L 286.5 60 L 280 64.5 L 279 66.5 L 279 77.5 Q 273 80.5 271.5 88 L 265.5 79 L 263 77.5 L 264 76.5 L 264 66.5 L 259.5 61 L 255.5 60 L 249 63.5 L 248 65.5 L 248 77.5 Q 241.9 80.5 241 87 Q 238 88.3 239 84.5 L 236 80 L 232 77.5 L 233 68.5 L 229.5 62 L 223.5 60 L 217 64.5 Q 214.3 68.3 216 76.5 Q 218.3 77.8 215.5 79 L 211 82.5 L 209 86.5 L 208.5 108 L 208 86.5 L 202.5 79 L 201 78.5 L 201 66.5 L 196.5 61 L 192.5 60 L 187 62 L 185 65.5 L 185 77.5 Q 179 80.5 177.5 88 L 172.5 80 L 169 77.5 L 170 68.5 L 166.5 62 L 161.5 60 L 157.5 61 L 154 64.5 L 153 69.5 Q 155.8 71.3 154 77.5 L 148 82.5 L 145.5 89 Q 144.3 82.2 139.5 79 L 138 78.5 L 138 65.5 Q 135.9 60.7 129.5 60 L 124 62 L 122 65.5 L 122 79 L 117 82.5 L 115.5 86 L 115 35.5 L 118.5 33 Z " /><path fill="rgb(230,232,236)" stroke="rgb(230,232,236)" stroke-width="1" opacity="1" d="M 114.5 89 L 115 107.5 L 114 107.5 L 114.5 89 Z " /><path fill="rgb(230,232,236)" stroke="rgb(230,232,236)" stroke-width="1" opacity="1" d="M 365.5 115 L 401.5 115 L 403 116.5 L 403 162 L 364 162 L 364 116.5 L 365.5 115 Z " /><path fill="rgb(230,232,236)" stroke="rgb(230,232,236)" stroke-width="1" opacity="1" d="M 115 123 L 333.5 123 L 334 123.5 L 334 164.5 L 332 163.5 Q 328 160 330 150.5 L 325.5 146 Q 317.2 144.7 315 149.5 Q 312.3 153.3 314 161.5 L 311 166 Q 308.3 167.1 309 164.5 L 306 161.5 Q 307.8 150.8 302.5 147 L 294.5 146 L 290 150.5 L 289 154.5 Q 291.3 155.8 290 160.5 Q 286.3 162.8 285.5 168 Q 284.8 162.8 281 160.5 L 281 150.5 L 276.5 146 Q 268.2 144.7 266 149.5 Q 263.3 153.3 265 161.5 L 262 166 Q 259.3 167.1 260 164.5 L 257 161.5 Q 259.2 150.3 253.5 147 L 245.5 146 L 241 150.5 L 241 160.5 L 236.5 168 L 233 161.5 Q 234 152.3 231 148 L 227.5 146 L 221.5 146 L 217 149.5 L 216 161.5 L 213 166 Q 210.3 167.1 211 164.5 L 208 161.5 Q 210.2 150.3 204.5 147 L 196.5 146 L 192 150.5 L 192 160.5 L 187.5 168 L 184 161.5 Q 185 152.3 182 148 L 178.5 146 L 172.5 146 L 169 148.5 Q 165.5 152.5 167 161.5 L 163.5 167 L 159 160.5 L 159 151.5 L 154.5 146 Q 144.8 144.3 143 150.5 L 143 160.5 L 138.5 168 L 135 161.5 Q 136.4 151.1 131.5 147 L 123.5 146 L 120 148.5 Q 116.5 152.5 118 161.5 L 115.5 165 L 115 123 Z " /><path fill="rgb(230,232,236)" stroke="rgb(230,232,236)" stroke-width="1" opacity="1" d="M 115 205 L 333.5 205 L 334 205.5 L 334 272 L 315 272 L 315 245.5 L 313 242 Q 310.7 239.4 304.5 240 L 300 243.5 L 299 245.5 L 299 272 L 282 272 L 282 246.5 L 280 242 Q 277.7 239.4 271.5 240 L 267 243.5 L 266 245.5 L 266 272 L 252 272 L 252 247.5 L 247.5 241 L 241.5 240 L 236 244.5 L 235 247.5 L 235 272 L 219 272 L 219 248.5 L 218 244.5 L 214.5 241 L 208.5 240 L 204 242 L 202 246.5 L 202 272 L 184 272 L 184 248.5 L 183 244.5 L 179.5 241 L 173.5 240 L 168 244.5 L 167 247.5 L 167 272 L 151.5 272 L 150 270.5 L 150 244.5 L 146.5 241 L 140.5 240 L 136 242 L 134 246.5 L 134 272 L 115.5 272 L 115 271.5 L 115 205 Z M 141 220 L 139 221 L 134 227 Q 133 234 139 236 L 148 235 L 150 232 L 149 224 Q 147 220 141 220 Z M 175 220 L 172 221 L 167 228 L 168 233 L 176 237 L 181 235 L 184 229 L 183 225 Q 181 220 175 220 Z M 210 220 L 207 221 L 202 227 Q 202 234 207 236 L 216 235 L 218 232 L 217 224 Q 215 220 210 220 Z M 243 220 L 240 221 L 235 228 L 236 233 L 244 237 L 249 235 L 252 229 L 251 225 Q 249 220 243 220 Z M 273 220 L 270 221 L 266 226 L 267 234 Q 270 237 278 236 L 282 231 Q 283 224 280 222 L 273 220 Z M 306 220 L 302 222 Q 298 224 299 232 Q 301 238 311 236 L 315 231 L 315 226 L 313 222 L 306 220 Z " /><path fill="rgb(230,232,236)" stroke="rgb(230,232,236)" stroke-width="1" opacity="1" d="M 375.5 242 L 376.5 244 L 375.5 242 Z " /><path fill="rgb(230,232,236)" stroke="rgb(230,232,236)" stroke-width="1" opacity="1" d="M 115 287 L 139.5 287 L 143.5 288 L 144.5 287 L 172.5 287 L 176.5 288 L 177.5 287 L 207.5 287 L 211.5 288 L 212.5 287 L 240.5 287 L 244.5 288 L 245.5 287 L 271.5 287 L 275.5 288 L 276.5 287 L 304.5 287 L 308.5 288 L 309.5 287 L 334 287 L 333.5 333 L 328.5 326 L 326 324.5 L 327 323.5 L 327 314.5 L 322.5 308 Q 314.5 306.5 312 310.5 L 310 316.5 Q 312.8 318.3 311 324.5 L 307 327 L 304 331.5 L 304 334 Q 301.3 335.1 302 332.5 L 295 324.5 L 295 312.5 L 292.5 309 L 283.5 308 L 279 313.5 L 279 326 L 274 329.5 L 271.5 335 L 265.5 326 L 264 325.5 L 264 313.5 L 259.5 308 Q 249.8 306.3 248 312.5 L 248 324.5 Q 241.9 327.5 241 334 Q 238 335.3 239 331.5 L 236 327 L 232 324.5 L 233 315.5 L 229.5 309 L 220.5 308 Q 214.2 311.7 216 323.5 Q 218.3 324.8 215.5 326 L 211 329.5 L 208.5 335 L 202.5 326 L 201 325.5 L 201 313.5 L 196.5 308 Q 186.8 306.3 185 312.5 L 185 324.5 Q 179 327.5 177.5 335 L 173 327 L 169 324.5 L 170 315.5 L 166.5 309 L 158.5 308 L 154 311.5 L 153 317.5 Q 155.5 319 154 324.5 L 149 328.5 L 145.5 336 Q 144.8 328.7 139.5 326 L 138 325.5 L 138 312.5 Q 136.3 306.3 126.5 308 L 122 312.5 L 122 326 L 116 330.5 L 115.5 332 L 115 287 Z " /><path fill="rgb(227,58,59)" stroke="rgb(227,58,59)" stroke-width="1" opacity="1" d="M 366.5 294 L 403.5 294 L 410 297.5 L 411 304.5 L 407.5 309 L 405.5 310 L 364.5 310 L 360 306.5 L 359 299.5 L 366.5 294 Z M 365 300 L 366 305 L 405 305 L 405 300 L 365 300 Z " /><path fill="rgb(59,79,101)" stroke="rgb(59,79,101)" stroke-width="1" opacity="1" d="M 371.5 0 L 417.5 0 L 426 4 L 429 10.5 L 429 480.5 L 424.5 487 L 418.5 490 L 372.5 490 L 372.5 489 L 380 483.5 L 382 479.5 L 382 310 L 405.5 310 L 410 306.5 L 411 299.5 L 408.5 296 L 403.5 294 L 382 294 L 382 280.5 L 385.5 280 L 391 275.5 L 392 270.5 L 388.5 265 L 383.5 263 L 382 263.5 L 382 170.5 L 381.5 170 L 361.5 170 L 361.5 169 L 406.5 169 L 409 166.5 L 409 111.5 L 408 109 L 404.5 108 L 382.5 108 L 381.5 109 L 360.5 109 L 358.5 111 L 360.5 108 L 381.5 108 L 382 107.5 L 382 11.5 Q 380.5 5 375.5 2 L 371.5 1 L 371.5 0 Z M 395 189 L 392 190 L 388 194 L 387 198 L 389 203 L 396 206 L 400 205 L 404 199 L 402 191 L 395 189 Z M 395 214 L 391 216 L 387 223 L 389 228 L 395 231 L 400 230 L 404 225 L 403 219 Q 401 214 395 214 Z M 394 240 L 392 241 L 388 245 L 387 249 L 389 254 L 393 256 L 401 255 L 404 250 L 402 242 Q 400 239 394 240 Z M 401 339 L 399 340 L 395 346 L 395 367 L 396 370 L 403 374 L 408 373 L 412 367 L 412 347 L 410 342 Q 408 338 401 339 Z " /><path fill="rgb(59,79,101)" stroke="rgb(59,79,101)" stroke-width="1" opacity="1" d="M 129.5 61 Q 135.1 61.5 137 65.5 L 136.5 69 L 123 69 Q 122 63.4 126.5 62 L 129.5 61 Z " /><path fill="rgb(59,79,101)" stroke="rgb(59,79,101)" stroke-width="1" opacity="1" d="M 160.5 61 L 167 63 L 169 69 L 154.5 69 L 154 67.5 L 156 63 L 160.5 61 Z " /><path fill="rgb(59,79,101)" stroke="rgb(59,79,101)" stroke-width="1" opacity="1" d="M 192.5 61 Q 197.3 61.3 199 64.5 L 200 69 L 186.5 69 L 186 65.5 L 192.5 61 Z " /><path fill="rgb(59,79,101)" stroke="rgb(59,79,101)" stroke-width="1" opacity="1" d="M 223.5 61 L 230 63 L 232 70 L 217.5 70 L 217 66.5 L 220.5 62 L 223.5 61 Z " /><path fill="rgb(59,79,101)" stroke="rgb(59,79,101)" stroke-width="1" opacity="1" d="M 254.5 61 Q 260.1 60.9 262 64.5 L 263 70 L 248.5 70 L 248 68.5 L 250 63 L 254.5 61 Z " /><path fill="rgb(59,79,101)" stroke="rgb(59,79,101)" stroke-width="1" opacity="1" d="M 286.5 61 L 293 63 L 295 70 L 280.5 70 L 280 66.5 L 283.5 62 L 286.5 61 Z " /><path fill="rgb(59,79,101)" stroke="rgb(59,79,101)" stroke-width="1" opacity="1" d="M 317.5 61 Q 323.1 60.9 325 64.5 L 326 70 L 311.5 70 L 311 68.5 L 313 63 L 317.5 61 Z " /><path fill="rgb(59,79,101)" stroke="rgb(59,79,101)" stroke-width="1" opacity="1" d="M 123.5 147 Q 131.5 145.5 133 150.5 L 134 155 L 119.5 155 L 119 152.5 L 123.5 147 Z " /><path fill="rgb(59,79,101)" stroke="rgb(59,79,101)" stroke-width="1" opacity="1" d="M 147.5 147 Q 154.8 145.8 157 149.5 L 158 155 L 144 155 L 144 150.5 L 147.5 147 Z " /><path fill="rgb(59,79,101)" stroke="rgb(59,79,101)" stroke-width="1" opacity="1" d="M 172.5 147 Q 180.5 145.5 182 150.5 L 183 155 L 168.5 155 L 168 152.5 L 170 148 L 172.5 147 Z " /><path fill="rgb(59,79,101)" stroke="rgb(59,79,101)" stroke-width="1" opacity="1" d="M 196.5 147 Q 203.8 145.8 206 149.5 L 207 155 L 192 154.5 L 193 150.5 L 196.5 147 Z " /><path fill="rgb(59,79,101)" stroke="rgb(59,79,101)" stroke-width="1" opacity="1" d="M 221.5 147 Q 229.5 145.5 231 150.5 L 232 155 L 217.5 155 L 217 151.5 L 219 148 L 221.5 147 Z " /><path fill="rgb(59,79,101)" stroke="rgb(59,79,101)" stroke-width="1" opacity="1" d="M 245.5 147 Q 252.8 145.8 255 149.5 L 256 155 L 241.5 155 L 241 153.5 L 245.5 147 Z " /><path fill="rgb(59,79,101)" stroke="rgb(59,79,101)" stroke-width="1" opacity="1" d="M 270.5 147 Q 278.5 145.5 280 150.5 L 281 155 L 266.5 155 L 266 151.5 L 268.5 148 L 270.5 147 Z " /><path fill="rgb(59,79,101)" stroke="rgb(59,79,101)" stroke-width="1" opacity="1" d="M 294.5 147 Q 300.6 146.2 303 148 L 305 151.5 L 305 155 L 290.5 155 L 290 153.5 L 294.5 147 Z " /><path fill="rgb(59,79,101)" stroke="rgb(59,79,101)" stroke-width="1" opacity="1" d="M 319.5 147 Q 327.5 145.5 329 150.5 L 330 154.5 L 315 155 Q 314.2 150 317.5 148 L 319.5 147 Z " /><path fill="rgb(59,79,101)" stroke="rgb(59,79,101)" stroke-width="1" opacity="1" d="M 358.5 167 L 359.5 169 L 358.5 167 Z " /><path fill="rgb(59,79,101)" stroke="rgb(59,79,101)" stroke-width="1" opacity="1" d="M 370.5 195 L 373 196.5 Q 374.1 199.8 371.5 199 Q 370.2 201.3 369 198.5 L 370.5 195 Z " /><path fill="rgb(59,79,101)" stroke="rgb(59,79,101)" stroke-width="1" opacity="1" d="M 395.5 195 L 398 196.5 L 395.5 200 Q 390.5 197.5 395.5 195 Z " /><path fill="rgb(59,79,101)" stroke="rgb(59,79,101)" stroke-width="1" opacity="1" d="M 370.5 220 L 373 221 Q 374.5 224.8 371.5 224 Q 370.2 226.3 369 223.5 L 370.5 220 Z " /><path fill="rgb(59,79,101)" stroke="rgb(59,79,101)" stroke-width="1" opacity="1" d="M 395.5 220 L 398 221 Q 399.5 224.8 396.5 224 Q 394.7 226.7 393 222.5 L 395.5 220 Z " /><path fill="rgb(59,79,101)" stroke="rgb(59,79,101)" stroke-width="1" opacity="1" d="M 140.5 221 L 144.5 221 L 148 223 L 150 228.5 L 145.5 235 L 141.5 236 L 136 232.5 L 135 226.5 L 138.5 222 L 140.5 221 Z " /><path fill="rgb(59,79,101)" stroke="rgb(59,79,101)" stroke-width="1" opacity="1" d="M 173.5 221 Q 179.3 220.2 181 223.5 L 183 228.5 L 181 234 L 175.5 236 L 170 234 L 168 226.5 L 171.5 222 L 173.5 221 Z " /><path fill="rgb(59,79,101)" stroke="rgb(59,79,101)" stroke-width="1" opacity="1" d="M 208.5 221 L 212.5 221 L 216 223 L 218 228.5 L 213.5 235 L 210.5 236 L 204 232.5 L 203 226.5 L 206.5 222 L 208.5 221 Z " /><path fill="rgb(59,79,101)" stroke="rgb(59,79,101)" stroke-width="1" opacity="1" d="M 241.5 221 Q 247.3 220.2 249 223.5 L 251 229.5 L 249 234 L 243.5 236 L 238 234 L 236 226.5 L 239.5 222 L 241.5 221 Z " /><path fill="rgb(59,79,101)" stroke="rgb(59,79,101)" stroke-width="1" opacity="1" d="M 272.5 221 Q 278.7 220.3 280 224.5 L 281 230.5 L 278.5 234 L 273.5 236 L 267 231.5 L 266 228.5 L 268 223 L 272.5 221 Z " /><path fill="rgb(59,79,101)" stroke="rgb(59,79,101)" stroke-width="1" opacity="1" d="M 305.5 221 Q 311.9 221.1 314 225.5 Q 315.1 233.1 310.5 235 L 306.5 236 L 300 231.5 Q 298.5 223.5 303.5 222 L 305.5 221 Z " /><path fill="rgb(59,79,101)" stroke="rgb(59,79,101)" stroke-width="1" opacity="1" d="M 139.5 241 Q 146 240 148 243.5 L 150 248.5 L 150 271 L 135 271 L 135 246.5 L 139.5 241 Z " /><path fill="rgb(59,79,101)" stroke="rgb(59,79,101)" stroke-width="1" opacity="1" d="M 173.5 241 Q 180.4 240.1 182 244.5 L 183 247.5 L 183 271 L 168 271 L 168 246.5 L 171.5 242 L 173.5 241 Z " /><path fill="rgb(59,79,101)" stroke="rgb(59,79,101)" stroke-width="1" opacity="1" d="M 207.5 241 Q 214 240 216 243.5 L 218 248.5 L 218 271 L 203 271 L 203 246.5 L 207.5 241 Z " /><path fill="rgb(59,79,101)" stroke="rgb(59,79,101)" stroke-width="1" opacity="1" d="M 241.5 241 Q 248.4 240.1 250 244.5 L 251 247.5 L 251 271 L 236 271 L 236 246.5 L 239.5 242 L 241.5 241 Z " /><path fill="rgb(59,79,101)" stroke="rgb(59,79,101)" stroke-width="1" opacity="1" d="M 271.5 241 L 276.5 241 L 281 245.5 L 281 271 L 266 271 L 266 248.5 L 269.5 242 L 271.5 241 Z " /><path fill="rgb(59,79,101)" stroke="rgb(59,79,101)" stroke-width="1" opacity="1" d="M 304.5 241 L 309.5 241 L 314 245.5 L 314 271 L 300 271 L 300 245.5 L 301 243 L 304.5 241 Z " /><path fill="rgb(59,79,101)" stroke="rgb(59,79,101)" stroke-width="1" opacity="1" d="M 369 246 L 373 247.5 Q 374.2 252.1 369 250 L 369 246 Z " /><path fill="rgb(59,79,101)" stroke="rgb(59,79,101)" stroke-width="1" opacity="1" d="M 394 246 L 398 247.5 L 396.5 250 L 393 248.5 L 394 246 Z " /><path fill="rgb(59,79,101)" stroke="rgb(59,79,101)" stroke-width="1" opacity="1" d="M 382.5 270 L 386 271.5 L 384.5 274 L 381 272.5 L 382.5 270 Z " /><path fill="rgb(59,79,101)" stroke="rgb(59,79,101)" stroke-width="1" opacity="1" d="M 362.5 295 L 360.5 298 L 362.5 295 Z " /><path fill="rgb(59,79,101)" stroke="rgb(59,79,101)" stroke-width="1" opacity="1" d="M 129.5 308 Q 135.1 308.5 137 312.5 L 137 317 L 123 317 Q 121.8 310.6 126.5 309 L 129.5 308 Z " /><path fill="rgb(59,79,101)" stroke="rgb(59,79,101)" stroke-width="1" opacity="1" d="M 161.5 308 L 167 310 L 169 317 L 154.5 317 L 154 314.5 L 156 310 L 161.5 308 Z " /><path fill="rgb(59,79,101)" stroke="rgb(59,79,101)" stroke-width="1" opacity="1" d="M 192.5 308 Q 197.3 308.3 199 311.5 L 200 317 L 186 317 L 186 312.5 L 192.5 308 Z " /><path fill="rgb(59,79,101)" stroke="rgb(59,79,101)" stroke-width="1" opacity="1" d="M 224.5 308 L 231 312.5 L 232 317 L 217.5 317 L 217 313.5 L 219 310 L 224.5 308 Z " /><path fill="rgb(59,79,101)" stroke="rgb(59,79,101)" stroke-width="1" opacity="1" d="M 255.5 308 L 262 311.5 L 263 317 L 248.5 317 L 248 315.5 L 252.5 309 L 255.5 308 Z " /><path fill="rgb(59,79,101)" stroke="rgb(59,79,101)" stroke-width="1" opacity="1" d="M 287.5 308 L 294 312.5 L 295 317 L 280.5 317 L 280 313.5 L 282.5 310 L 287.5 308 Z " /><path fill="rgb(59,79,101)" stroke="rgb(59,79,101)" stroke-width="1" opacity="1" d="M 318.5 308 L 324 310 L 326 313.5 L 326 317 L 311.5 317 L 311 315.5 L 315.5 309 L 318.5 308 Z " /><path fill="rgb(59,79,101)" stroke="rgb(59,79,101)" stroke-width="1" opacity="1" d="M 116.5 403 L 115.5 405 L 116.5 403 Z " /><path fill="rgb(59,79,101)" stroke="rgb(59,79,101)" stroke-width="1" opacity="1" d="M 161.5 403 L 164 406.5 L 163 406.5 L 161.5 403 Z " /><path fill="rgb(59,79,101)" stroke="rgb(59,79,101)" stroke-width="1" opacity="1" d="M 199.5 406 L 200 447.5 L 201 448.5 L 199 447.5 L 199.5 406 Z " /><path fill="rgb(59,79,101)" stroke="rgb(59,79,101)" stroke-width="1" opacity="1" d="M 284.5 407 L 285 445.5 L 284 445.5 L 284.5 407 Z " /><path fill="rgb(59,79,101)" stroke="rgb(59,79,101)" stroke-width="1" opacity="1" d="M 334.5 407 L 335 446.5 L 334 446.5 L 334.5 407 Z " /><path fill="rgb(59,79,101)" stroke="rgb(59,79,101)" stroke-width="1" opacity="1" d="M 249.5 408 L 250 444.5 L 249 444.5 L 249.5 408 Z " /><path fill="rgb(59,79,101)" stroke="rgb(59,79,101)" stroke-width="1" opacity="1" d="M 248.5 448 L 247.5 450 L 248.5 448 Z " /><path fill="rgb(59,79,101)" stroke="rgb(59,79,101)" stroke-width="1" opacity="1" d="M 285.5 448 L 290 450.5 L 287.5 451 L 285.5 448 Z " /><path fill="rgb(59,79,101)" stroke="rgb(59,79,101)" stroke-width="1" opacity="1" d="M 333.5 448 L 331.5 451 L 330 450.5 L 333.5 448 Z " /><path fill="rgb(37,58,76)" stroke="rgb(37,58,76)" stroke-width="1" opacity="0.996078431372549" d="M 382.5 108 L 404.5 108 L 408 109 L 409 111.5 L 409 166.5 L 406.5 169 L 360.5 169 L 358 166.5 L 358 111.5 L 360.5 109 L 381.5 109 L 382.5 108 Z M 363 115 L 363 162 L 365 163 L 403 163 L 404 162 L 404 115 L 363 115 Z " /><path fill="rgb(37,58,76)" stroke="rgb(37,58,76)" stroke-width="1" opacity="0.996078431372549" d="M 117.5 403 L 160.5 403 L 163 405.5 L 164 407.5 L 164 446.5 L 161.5 450 L 158.5 451 L 119.5 451 L 115 448.5 L 114 445.5 L 114 408.5 L 117.5 403 Z " /><path fill="rgb(37,58,76)" stroke="rgb(37,58,76)" stroke-width="1" opacity="0.996078431372549" d="M 203.5 403 L 245.5 403 L 248 404 L 249 406.5 L 249 447.5 L 243.5 451 L 204.5 451 L 201 450 L 200 447.5 L 200 405.5 L 203.5 403 Z " /><path fill="rgb(37,58,76)" stroke="rgb(37,58,76)" stroke-width="1" opacity="0.996078431372549" d="M 288.5 403 L 330.5 403 L 334 405.5 L 334 447.5 L 331.5 450 L 329.5 451 L 290.5 451 L 285 447.5 L 285 406.5 L 286 404 L 288.5 403 Z " /><path fill="rgb(37,58,76)" stroke="rgb(37,58,76)" stroke-width="1" opacity="0.996078431372549" d="M 98 490 L 112.5 490 L 114 491.5 Q 116.3 505.8 109.5 511 L 104.5 512 L 99 507.5 L 98 504.5 L 98 490 Z " /><path fill="rgb(37,58,76)" stroke="rgb(37,58,76)" stroke-width="1" opacity="0.996078431372549" d="M 401 490 L 416 490 L 416 504.5 L 414 510 L 407.5 512 L 401 507.5 L 401 490 Z " /></svg>